<svg xmlns="http://www.w3.org/2000/svg" viewBox="0 0 1920 650">
<defs><linearGradient id="bg" x2="1" y2="1"><stop stop-color="#070707"/><stop offset=".7" stop-color="#191919"/><stop offset="1" stop-color="#090909"/></linearGradient></defs>
<rect width="1920" height="650" fill="url(#bg)"/><circle cx="1570" cy="180" r="390" fill="#e50914" opacity=".16"/>
<text x="90" y="92" fill="#fff" font-family="Arial Black,Arial" font-size="42">MUSCLE <tspan fill="#e50914">WARRIOR</tspan></text>
<text x="90" y="145" fill="#e50914" font-family="Arial" font-size="21" font-weight="700" letter-spacing="4">ANIMAL MASS GAINER</text>
<text x="90" y="275" fill="#fff" font-family="Arial Black,Arial" font-size="76">BUILD MORE.</text><text x="90" y="355" fill="#e50914" font-family="Arial Black,Arial" font-size="76">GET STRONGER.</text>
<text x="90" y="400" fill="#cfcfcf" font-family="Arial" font-size="22">2.72 KG • SERIOUS TRAINING • SERIOUS GAINS</text>
<rect x="90" y="440" width="205" height="48" rx="4" fill="#e50914"/><text x="192" y="472" text-anchor="middle" fill="#fff" font-family="Arial" font-size="16" font-weight="800">SHOP NOW</text>
<g transform="translate(1420 185)"><circle cx="80" cy="38" r="34" fill="#d8a37b"/><path d="M35 185 Q80 90 125 185 L125 315 L35 315Z" fill="#242424"/><path d="M48 188 Q80 125 112 188 L145 315 L112 315 L80 240 L48 315 L15 315Z" fill="#e50914"/><path d="M35 315 L5 485 L55 485 L80 365 L105 485 L155 485 L125 315Z" fill="#181818"/><path d="M55 140 Q80 110 105 140" stroke="#111" stroke-width="18" fill="none" stroke-linecap="round"/></g>
<image href="/products/animal-mass.webp" x="1120" y="170" width="260" height="360" preserveAspectRatio="xMidYMid meet"/>
<text x="1800" y="600" text-anchor="end" fill="#fff" font-family="Arial" font-size="18" font-weight="800">01 / 03</text></svg>